# xmcd
#
# Track frame offsets:
#  150
#  19920
#  40165
#  56152
#  70605
#  91165
#  100770
#  118085
#  133932
#  151157
#  165450
#
# Disc length: 2370 seconds
#
# Revision: 0
# Processed by: cddbd v1.5.1PL2 Copyright (c) Steve Scherf et al.
# Submitted via: Collectorz.com_Music_Collector 6.10
#
DISCID=8909400b
DTITLE=Doug Sahm A.K.A. The Texas Tornado - Get A Life
DYEAR=1998
DGENRE=Country Rock
TTITLE0=Get A Life
TTITLE1=St. Olav´s Gate
TTITLE2=Goodbye San Francisco - Hello Amsterdam
TTITLE3=Give Back The Key To My Heart
TTITLE4=Malmö Mama
TTITLE5=On Bended Knee
TTITLE6=Louis Riel
TTITLE7=The Ballad Of Davy Crockett
TTITLE8=Sooner Or Later
TTITLE9=Invitation To The Blues
TTITLE10=Henrietta
EXTD=
EXTT0=
EXTT1=
EXTT2=
EXTT3=
EXTT4=
EXTT5=
EXTT6=
EXTT7=
EXTT8=
EXTT9=
EXTT10=
PLAYORDER=
